<svg xmlns="http://www.w3.org/2000/svg" viewBox="0 0 32 32" width="32" height="32">
  <rect x="0" y="0" width="32" height="32" rx="7" fill="#2563eb"/>
  <path d="M 5 3 L 20 3 L 27 10 L 27 29 L 5 29 Z" fill="white"/>
  <path d="M 20 3 L 27 10 L 20 10 Z" fill="#2563eb" opacity="0.3"/>
  <path d="M 8 8 L 14 8 C 23 8 26 13 26 18 C 26 23 23 27 14 27 L 8 27 Z" fill="#2563eb"/>
  <path d="M 11 12 L 14 12 C 20 12 22 15 22 18 C 22 21 20 24 14 24 L 11 24 Z" fill="white"/>
  <circle cx="25" cy="24" r="6" fill="#1d4ed8"/>
  <path d="M 25 20 L 25 26 M 22 23 L 25 27 L 28 23" stroke="white" stroke-width="1.5" fill="none" stroke-linecap="round" stroke-linejoin="round"/>
</svg>
